#Comment line ignore any data following # character 
#Hierarchical Translation and Rotation (.htr) file 
[Header]	
#Header keywords are followed by a single value 
FileType HTR		#Single word string
DataType HTRS		#Translation followed by rotation and scale data
FileVersion 1		#integer
NumSegments 25		#integer
NumFrames 4		#integer
DataFrameRate 30		#integer, data frame rate in this file
EulerRotationOrder ZYX
CalibrationUnits mm
RotationUnits Degrees
GlobalAxisofGravity Y
BoneLengthAxis Y
ScaleFactor 1.00
[SegmentNames&Hierarchy]
#CHILD	PARENT
BN_Tick_Root GLOBAL
BN_Torso BN_Tick_Root
BN_L_Leg_Front01 BN_Torso
BN_L_Leg_Rear01 BN_Torso
BN_MetalTop BN_Torso
BN_Neck BN_Torso
BN_R_Leg_Front01 BN_Torso
BN_R_Leg_Rear01 BN_Torso
BN_Sack BN_Torso
BN_L_Leg_Front02 BN_L_Leg_Front01
BN_L_Leg_Front03 BN_L_Leg_Front02
BN_L_Leg_Rear02 BN_L_Leg_Rear01
BN_L_Leg_Rear03 BN_L_Leg_Rear02
BN_Head BN_Neck
BN_Needle BN_Head
BN_R_Leg_Front02 BN_R_Leg_Front01
BN_R_Leg_Front03 BN_R_Leg_Front02
BN_R_Leg_Rear02 BN_R_Leg_Rear01
BN_R_Leg_Rear03 BN_R_Leg_Rear02
BN_SackDef01 BN_Sack
BN_SackDef02 BN_Sack
BN_SackDef03 BN_Sack
BN_SackDef04 BN_Sack
BN_SackDef05 BN_Sack
BN_SackDef06 BN_Sack
[BasePosition]
#SegmentName Tx, Ty, Tz, Rx, Ry, Rz, BoneLength
BN_Tick_Root 0.000000 0.000000 0.000000 -90.000000 0.000000 0.000000 10.000000 
BN_Torso 0.000000 0.000000 0.000000 0.000000 0.000000 0.000000 10.000000 
BN_L_Leg_Front01 0.000000 0.000000 0.000000 0.000000 0.000000 0.000000 10.000000 
BN_L_Leg_Rear01 0.000000 0.000000 0.000000 0.000000 0.000000 0.000000 10.000000 
BN_MetalTop 0.000000 0.000000 0.000000 0.000000 0.000000 0.000000 10.000000 
BN_Neck 0.000000 0.000000 0.000000 0.000000 0.000000 0.000000 10.000000 
BN_R_Leg_Front01 0.000000 0.000000 0.000000 0.000000 0.000000 0.000000 10.000000 
BN_R_Leg_Rear01 0.000000 0.000000 0.000000 0.000000 0.000000 0.000000 10.000000 
BN_Sack 0.000000 0.000000 0.000000 0.000000 0.000000 0.000000 10.000000 
BN_L_Leg_Front02 0.000000 0.000000 0.000000 0.000000 0.000000 0.000000 10.000000 
BN_L_Leg_Front03 0.000000 0.000000 0.000000 0.000000 0.000000 0.000000 10.000000 
BN_L_Leg_Rear02 0.000000 0.000000 0.000000 0.000000 0.000000 0.000000 10.000000 
BN_L_Leg_Rear03 0.000000 0.000000 0.000000 0.000000 0.000000 0.000000 10.000000 
BN_Head 0.000000 0.000000 0.000000 0.000000 0.000000 0.000000 10.000000 
BN_Needle 0.000000 0.000000 0.000000 0.000000 0.000000 0.000000 10.000000 
BN_R_Leg_Front02 0.000000 0.000000 0.000000 0.000000 0.000000 0.000000 10.000000 
BN_R_Leg_Front03 0.000000 0.000000 0.000000 0.000000 0.000000 0.000000 10.000000 
BN_R_Leg_Rear02 0.000000 0.000000 0.000000 0.000000 0.000000 0.000000 10.000000 
BN_R_Leg_Rear03 0.000000 0.000000 0.000000 0.000000 0.000000 0.000000 10.000000 
BN_SackDef01 0.000000 0.000000 0.000000 0.000000 0.000000 0.000000 10.000000 
BN_SackDef02 0.000000 0.000000 0.000000 0.000000 0.000000 0.000000 10.000000 
BN_SackDef03 0.000000 0.000000 0.000000 0.000000 0.000000 0.000000 10.000000 
BN_SackDef04 0.000000 0.000000 0.000000 0.000000 0.000000 0.000000 10.000000 
BN_SackDef05 0.000000 0.000000 0.000000 0.000000 0.000000 0.000000 10.000000 
BN_SackDef06 0.000000 0.000000 0.000000 0.000000 0.000000 0.000000 10.000000 
#Beginning of Data. Separated by tabs
#Fr	Tx	Ty	Tz	Rx	Ry	Rz	SF
[BN_Tick_Root]
48 -0.000099 404.320648 -0.000313 0.000000 -0.000000 73.553436 404.320679
49 -0.000109 404.320648 -0.000300 0.000000 -0.000000 73.550270 404.320679
50 -0.000119 404.320679 -0.000287 0.000000 -0.000000 73.547119 404.320679
51 -0.000129 404.320679 -0.000274 0.000000 -0.000000 73.543961 404.320679
[BN_Torso]
48 -0.000060 0.000043 213.800232 18.886925 1.002789 -7.639053 213.800247
49 -0.000060 0.000032 213.800201 18.887655 0.953127 -7.634728 213.800217
50 -0.000060 0.000021 213.800186 18.888374 0.903465 -7.630402 213.800201
51 -0.000060 0.000011 213.800171 18.889093 0.853803 -7.626075 213.800171
[BN_L_Leg_Front01]
48 -68.477791 10.734189 -26.804373 -27.755487 56.652969 154.783096 74.316254
49 -68.477791 10.734189 -26.804373 -27.735050 56.616196 154.789185 74.316254
50 -68.477791 10.734189 -26.804373 -27.714624 56.579395 154.795212 74.316254
51 -68.477791 10.734189 -26.804373 -27.684235 56.528927 154.807709 74.316254
[BN_L_Leg_Rear01]
48 -72.133743 -73.994843 -18.268616 80.507751 27.574251 -124.647797 104.939293
49 -72.133743 -73.994843 -18.268616 80.466110 27.538591 -124.690063 104.939293
50 -72.133743 -73.994843 -18.268616 80.424522 27.502895 -124.732285 104.939293
51 -72.133743 -73.994843 -18.268616 80.382980 27.467182 -124.774467 104.939293
[BN_MetalTop]
48 0.000008 13.737477 26.403606 89.998634 -12.318502 -89.998619 29.763546
49 0.000008 13.737477 26.403606 89.998634 -12.114952 -89.997627 29.763546
50 0.000008 13.737477 26.403606 89.998665 -11.911407 -89.996651 29.763546
51 0.000008 13.737477 26.403606 89.998695 -11.707866 -89.995651 29.763546
[BN_Neck]
48 0.000014 95.233284 10.002091 -139.728668 -70.506950 135.399765 95.757088
49 0.000014 95.233284 10.002091 -145.283371 -70.638084 142.222534 95.757088
50 0.000014 95.233284 10.002091 -145.283493 -70.638077 142.222687 95.757088
51 0.000014 95.233284 10.002091 -145.283493 -70.638077 142.222687 95.757088
[BN_R_Leg_Front01]
48 68.477768 10.734107 -26.804314 14.641822 64.874039 18.415312 74.316193
49 68.477768 10.734107 -26.804314 14.661826 64.926933 18.419695 74.316193
50 68.477768 10.734107 -26.804314 14.681866 64.979820 18.424118 74.316193
51 68.477768 10.734107 -26.804314 14.701963 65.032715 18.428602 74.316193
[BN_R_Leg_Rear01]
48 72.133751 -73.994873 -18.268644 -75.720863 26.977842 -61.943172 104.939331
49 72.133751 -73.994873 -18.268644 -75.756065 27.003613 -61.977890 104.939331
50 72.133751 -73.994873 -18.268644 -75.791328 27.029373 -62.012642 104.939331
51 72.133751 -73.994873 -18.268644 -75.826599 27.055111 -62.047421 104.939331
[BN_Sack]
48 -0.000000 -78.024918 33.657791 89.999420 0.360476 -90.002182 84.974907
49 -0.000000 -78.024918 33.657791 89.995239 -0.212454 -89.996864 84.974907
50 -0.000000 -78.024918 33.657791 89.999947 -1.073128 -90.003242 84.974907
51 -0.000000 -78.024918 33.657791 89.996979 -2.693624 -89.998566 84.974907
[BN_L_Leg_Front02]
48 142.805023 -0.000015 -0.000104 -10.293056 -11.697460 -74.772125 142.805023
49 142.805023 -0.000015 -0.000104 -10.291850 -11.698717 -74.779449 142.805023
50 142.805023 -0.000015 -0.000104 -10.290642 -11.699975 -74.786774 142.805023
51 142.805023 -0.000015 -0.000104 -10.289436 -11.701234 -74.794098 142.805023
[BN_L_Leg_Front03]
48 124.143021 -0.000045 0.000007 0.351670 -0.439571 78.679306 124.143021
49 124.143021 -0.000045 0.000007 0.351631 -0.439603 78.689644 124.143021
50 124.143021 -0.000045 0.000007 0.351591 -0.439635 78.699966 124.143021
51 124.143021 -0.000045 0.000007 0.351551 -0.439666 78.710297 124.143021
[BN_L_Leg_Rear02]
48 139.939041 0.000075 -0.000022 16.465906 -23.814890 76.697517 139.939041
49 139.939041 0.000075 -0.000022 16.464594 -23.815428 76.701004 139.939041
50 139.939041 0.000075 -0.000022 16.463276 -23.815954 76.704475 139.939041
51 139.939041 0.000075 -0.000022 16.461962 -23.816492 76.707962 139.939041
[BN_L_Leg_Rear03]
48 142.839615 0.000179 -0.000060 0.000108 -0.002345 -95.251137 142.839615
49 142.839615 0.000179 -0.000060 0.000108 -0.002345 -95.254959 142.839615
50 142.839615 0.000179 -0.000060 0.000108 -0.002345 -95.258774 142.839615
51 142.839615 0.000179 -0.000060 0.000108 -0.002345 -95.262604 142.839615
[BN_Head]
48 57.062447 -0.000030 0.000000 -5.837252 -13.721865 -10.731192 57.062447
49 57.062447 -0.000030 0.000000 -4.685750 -15.188973 -12.550230 57.062447
50 57.062447 -0.000030 0.000000 -4.685727 -15.189002 -12.550266 57.062447
51 57.062447 -0.000030 0.000000 -4.685727 -15.189002 -12.550266 57.062447
[BN_Needle]
48 33.915195 69.677666 -0.000082 0.000003 0.000030 87.896805 77.493340
49 33.915195 69.677666 -0.000081 0.000003 0.000030 87.896805 77.493340
50 33.915195 69.677666 -0.000080 0.000003 0.000030 87.896805 77.493340
51 33.915195 69.677666 -0.000080 0.000003 0.000030 87.896805 77.493340
[BN_R_Leg_Front02]
48 142.804947 -0.000060 0.000060 3.377246 -24.679714 114.241051 142.804947
49 142.804947 -0.000060 0.000060 3.381493 -24.679211 114.228981 142.804947
50 142.804947 -0.000060 0.000060 3.385739 -24.678705 114.216911 142.804947
51 142.804947 -0.000060 0.000060 3.389983 -24.678188 114.204826 142.804947
[BN_R_Leg_Front03]
48 124.143005 -0.000060 -0.000156 -0.351664 -0.374121 -123.308907 124.143005
49 124.143005 -0.000060 -0.000156 -0.351697 -0.374091 -123.298866 124.143005
50 124.143005 -0.000060 -0.000156 -0.351730 -0.374060 -123.288834 124.143005
51 124.143005 -0.000060 -0.000156 -0.351762 -0.374029 -123.278793 124.143005
[BN_R_Leg_Rear02]
48 139.939011 -0.000149 0.000015 -12.487292 -25.495584 -86.792961 139.939011
49 139.939011 -0.000149 0.000015 -12.489005 -25.494448 -86.787834 139.939011
50 139.939011 -0.000149 0.000015 -12.490723 -25.493309 -86.782692 139.939011
51 139.939011 -0.000149 0.000015 -12.492440 -25.492178 -86.777565 139.939011
[BN_R_Leg_Rear03]
48 142.839417 0.000075 0.000119 0.002320 -0.000354 107.352592 142.839417
49 142.839417 0.000075 0.000119 0.002320 -0.000354 107.346954 142.839417
50 142.839417 0.000075 0.000119 0.002320 -0.000354 107.341331 142.839417
51 142.839417 0.000075 0.000119 0.002320 -0.000354 107.335709 142.839417
[BN_SackDef01]
48 249.782272 -3.760844 42.949425 -128.408218 -44.374973 -11.740845 253.475800
49 249.782272 -3.760844 42.949425 -128.408218 -44.374973 -11.740845 253.475800
50 249.782272 -3.760844 42.949425 -128.408218 -44.374973 -11.740845 253.475800
51 249.782272 -3.760844 42.949425 -128.408218 -44.374973 -11.740845 253.475800
[BN_SackDef02]
48 138.789795 -62.131748 45.674385 32.077126 -27.375721 -88.781525 158.773758
49 138.789795 -62.131748 45.674385 32.077126 -27.375721 -88.781525 158.773758
50 138.789795 -62.131748 45.674385 32.077126 -27.375721 -88.781525 158.773758
51 138.789795 -62.131748 45.674385 32.077126 -27.375721 -88.781525 158.773758
[BN_SackDef03]
48 249.782272 -3.760785 -42.949661 18.144459 44.375008 -11.740894 253.475845
49 249.782272 -3.760785 -42.949661 18.144459 44.375008 -11.740894 253.475845
50 249.782272 -3.760785 -42.949661 18.144459 44.375008 -11.740894 253.475845
51 249.782272 -3.760785 -42.949661 18.144459 44.375008 -11.740894 253.475845
[BN_SackDef04]
48 138.789780 -62.131645 -45.674473 146.059982 27.375723 -88.781555 158.773743
49 138.789780 -62.131645 -45.674473 146.059982 27.375723 -88.781555 158.773743
50 138.789780 -62.131645 -45.674473 146.059982 27.375723 -88.781555 158.773743
51 138.789780 -62.131645 -45.674473 146.059982 27.375723 -88.781555 158.773743
[BN_SackDef05]
48 118.790161 46.167137 -63.831196 0.155741 51.314110 90.605110 142.537460
49 118.790161 46.167137 -63.831196 0.155741 51.314110 90.605110 142.537460
50 118.790161 46.167137 -63.831196 0.155741 51.314110 90.605110 142.537460
51 118.790161 46.167137 -63.831196 0.155741 51.314110 90.605110 142.537460
[BN_SackDef06]
48 118.790207 46.167194 63.831219 152.058487 -51.314072 90.605019 142.537537
49 118.790207 46.167194 63.831219 152.058487 -51.314072 90.605019 142.537537
50 118.790207 46.167194 63.831219 152.058487 -51.314072 90.605019 142.537537
51 118.790207 46.167194 63.831219 152.058487 -51.314072 90.605019 142.537537
